<?xml version="1.0" standalone="no"?>
<!DOCTYPE svg PUBLIC "-//W3C//DTD SVG 20010904//EN"
 "http://www.w3.org/TR/2001/REC-SVG-20010904/DTD/svg10.dtd">
<svg version="1.0" xmlns="http://www.w3.org/2000/svg"
 width="924.000000pt" height="395.000000pt" viewBox="0 0 924.000000 395.000000"
 preserveAspectRatio="xMidYMid meet">

<g transform="translate(0.000000,395.000000) scale(0.100000,-0.100000)"
fill="#000000" stroke="none">
<path d="M6810 3947 c-3 -3 -46 -10 -96 -16 -423 -51 -830 -418 -950 -856 -25
-92 -28 -115 -28 -285 0 -170 2 -193 27 -281 32 -116 90 -254 141 -333 53 -84
213 -244 314 -316 207 -147 412 -210 682 -210 242 1 410 52 616 188 190 126
354 315 434 503 42 98 67 208 82 354 39 404 -164 829 -509 1063 -125 85 -263
141 -410 167 -92 17 -294 31 -303 22z m335 -222 c437 -128 724 -530 702 -985
-9 -189 -61 -344 -164 -489 -180 -252 -493 -421 -780 -421 -325 0 -648 179
-837 464 -179 268 -202 610 -62 896 140 286 412 497 716 556 108 22 317 11
425 -21z"/>
<path d="M7354 3308 c-28 -29 -173 -200 -323 -380 -150 -181 -274 -328 -276
-328 -1 0 -60 69 -130 154 -81 100 -136 158 -154 164 -72 25 -172 -33 -186
-108 -5 -30 -2 -42 25 -75 36 -45 35 -45 269 -327 l172 -207 33 37 c18 20 86
102 152 182 66 80 196 237 290 350 333 403 328 396 318 436 -7 27 -118 154
-134 154 -4 0 -29 -24 -56 -52z"/>
<path d="M3245 3825 c-5 -2 -82 -9 -170 -14 -176 -12 -323 -31 -452 -62 -82
-19 -267 -77 -328 -103 -16 -7 -48 -20 -70 -29 -22 -8 -74 -29 -115 -45 -41
-17 -118 -47 -170 -67 -52 -20 -104 -40 -115 -45 -196 -89 -401 -151 -550
-165 -38 -3 -119 -13 -180 -21 -93 -12 -115 -19 -145 -43 -67 -54 -113 -210
-126 -424 -7 -112 -8 -119 -31 -130 -33 -15 -36 -39 -30 -196 11 -293 72 -363
387 -445 130 -34 308 -78 360 -90 l25 -5 1 152 c0 137 3 159 26 224 173 484
782 609 1123 230 62 -69 127 -191 150 -282 17 -67 22 -193 11 -272 l-8 -53
1521 0 c837 0 1521 2 1521 4 0 2 -34 54 -75 115 -121 180 -193 348 -229 540
-23 123 -21 362 4 493 11 57 20 108 20 114 0 6 -42 20 -94 32 -79 17 -122 36
-277 120 -101 54 -215 118 -254 142 -344 212 -590 279 -1170 320 -140 9 -538
13 -560 5z m600 -146 c489 -33 720 -115 1155 -410 142 -96 195 -143 187 -164
-6 -13 -44 -15 -289 -15 -156 0 -422 7 -593 15 -776 37 -947 46 -1050 55 -60
6 -175 14 -255 20 -294 20 -641 56 -785 81 -54 9 -70 17 -95 45 -16 19 -30 38
-30 43 0 9 214 112 366 176 202 86 416 135 665 154 154 12 552 12 724 0z
m-2617 -715 c7 -2 12 -23 12 -57 0 -53 -1 -54 -37 -70 -68 -30 -197 -77 -210
-77 -10 0 -13 26 -13 103 0 57 3 107 6 110 7 6 218 -1 242 -9z"/>
<path d="M2085 2603 c-186 -42 -347 -203 -386 -385 -18 -82 -7 -242 21 -308
90 -211 279 -331 501 -317 298 19 516 290 470 584 -32 203 -177 368 -366 418
-55 14 -193 19 -240 8z m244 -238 c59 -32 100 -75 133 -138 19 -34 23 -58 23
-127 0 -69 -4 -93 -23 -127 -35 -66 -75 -106 -139 -139 -76 -38 -184 -41 -251
-6 -204 108 -239 345 -71 496 65 59 115 76 205 72 54 -2 82 -9 123 -31z"/>
<path d="M5565 1050 c-111 -16 -231 -96 -297 -197 -75 -114 -83 -146 -83 -318
0 -166 9 -202 72 -303 77 -122 193 -196 336 -215 196 -26 377 47 480 193 43
62 45 73 15 88 -13 6 -51 27 -85 46 l-62 35 -21 -42 c-51 -99 -113 -132 -245
-131 -77 1 -96 5 -135 27 -88 50 -132 119 -150 229 -26 170 36 328 154 391 33
18 58 22 131 22 123 0 164 -23 245 -134 15 -21 16 -20 103 30 48 28 87 55 87
59 0 5 -27 38 -60 73 -121 130 -279 177 -485 147z"/>
<path d="M355 1039 c-4 -5 -49 -135 -100 -287 -51 -152 -127 -377 -169 -500
-42 -122 -76 -224 -76 -227 0 -3 49 -5 108 -5 l108 0 34 105 34 105 185 -2
184 -3 35 -102 34 -103 110 0 c84 0 109 3 106 12 -3 7 -81 239 -173 516 l-169
502 -123 0 c-75 0 -124 -4 -128 -11z m189 -427 c31 -95 56 -177 56 -182 0 -6
-49 -10 -120 -10 -66 0 -120 3 -120 6 0 4 20 70 45 148 25 77 51 160 57 184 6
24 14 40 18 35 5 -4 33 -86 64 -181z"/>
<path d="M1050 535 l0 -515 208 0 c115 0 235 5 268 10 119 21 193 68 238 149
72 133 27 304 -94 357 l-39 17 43 27 c160 102 134 341 -45 428 -71 34 -137 42
-365 42 l-214 0 0 -515z m419 334 c92 -19 132 -89 95 -166 -28 -57 -68 -72
-196 -73 l-108 0 0 125 0 125 80 0 c43 0 101 -5 129 -11z m50 -423 c50 -18 73
-54 73 -114 0 -55 -19 -93 -58 -110 -14 -7 -77 -12 -149 -12 l-125 0 0 125 0
125 113 -1 c62 0 127 -6 146 -13z"/>
<path d="M2381 868 c-63 -188 -204 -601 -214 -628 -4 -8 -16 -44 -27 -80 -12
-36 -25 -73 -31 -82 -5 -10 -9 -27 -9 -38 0 -19 6 -20 103 -20 l103 0 34 105
35 105 189 -2 189 -3 21 -65 c12 -36 24 -69 27 -75 4 -5 9 -22 13 -38 l6 -27
110 0 c61 0 110 1 110 3 0 2 -73 217 -161 478 -89 261 -166 491 -171 512 l-10
37 -128 0 -128 0 -61 -182z m248 -245 c34 -101 61 -187 61 -193 0 -6 -47 -10
-125 -10 -69 0 -125 3 -125 6 0 4 25 86 56 183 31 97 58 182 60 190 3 8 6 12
8 10 3 -2 32 -86 65 -186z"/>
<path d="M6215 1038 c-3 -7 -4 -238 -3 -513 l3 -500 98 -3 97 -3 0 223 c0 252
9 289 72 328 39 24 107 26 147 5 53 -27 61 -69 61 -325 l0 -230 96 0 95 0 -3
278 c-4 308 -6 316 -74 392 -39 43 -122 80 -180 80 -46 0 -130 -27 -174 -57
l-35 -23 -3 180 -2 180 -96 0 c-66 0 -96 -4 -99 -12z"/>
<path d="M8532 538 l3 -513 98 -3 97 -3 0 114 0 113 34 33 c19 18 39 30 45 26
6 -3 41 -52 77 -108 37 -56 78 -119 92 -140 l25 -37 109 0 c60 0 108 4 106 8
-1 4 -65 99 -141 210 -85 125 -135 207 -131 215 5 6 59 73 121 149 62 75 113
139 113 142 0 3 -48 6 -107 6 l-108 -1 -45 -55 c-52 -64 -183 -204 -190 -204
-3 0 -4 126 -2 280 l3 280 -101 0 -100 0 2 -512z"/>
<path d="M3983 950 c-22 -9 -23 -15 -23 -105 l0 -95 -55 0 -56 0 3 -72 3 -73
53 -3 52 -3 0 -172 c1 -263 24 -343 111 -387 51 -26 112 -34 193 -25 l66 7 0
79 0 79 -60 0 c-51 0 -65 4 -85 25 -25 24 -25 26 -25 210 l0 185 85 0 85 0 0
75 0 74 -82 3 -83 3 -5 100 -5 100 -75 2 c-41 1 -85 -2 -97 -7z"/>
<path d="M4665 758 c-16 -6 -49 -17 -72 -25 -191 -66 -270 -322 -166 -543 26
-56 112 -132 174 -155 83 -31 216 -28 290 7 79 36 133 89 171 166 28 57 34 80
36 153 7 172 -57 296 -187 363 -77 41 -183 55 -246 34z m151 -177 c112 -68
120 -295 14 -385 -26 -22 -41 -26 -90 -26 -52 0 -64 4 -94 30 -49 43 -70 111
-64 210 5 88 26 132 78 167 42 29 112 31 156 4z"/>
<path d="M7218 750 c-102 -39 -156 -88 -204 -186 -27 -55 -29 -67 -29 -179 0
-117 1 -122 34 -188 38 -75 91 -129 160 -161 65 -30 244 -30 311 1 60 27 107
68 142 122 46 74 42 81 -54 83 -80 1 -81 2 -28 8 l55 7 -59 1 c-57 2 -60 1
-93 -38 -92 -108 -260 -53 -274 90 l-4 35 253 3 252 2 0 59 c0 116 -58 239
-138 295 -88 61 -232 81 -324 46z m192 -150 c36 -19 80 -79 80 -110 0 -6 -54
-10 -155 -10 -107 0 -155 3 -155 11 0 26 45 88 79 107 46 27 101 28 151 2z"/>
<path d="M8005 753 c-110 -34 -194 -118 -230 -230 -13 -38 -16 -78 -13 -155 4
-120 28 -183 99 -257 120 -125 362 -135 492 -21 52 46 94 108 81 119 -5 5 -39
24 -76 44 l-68 36 -54 -55 -55 -54 -67 0 c-64 0 -68 2 -104 38 -47 47 -64 103
-58 197 6 91 35 148 88 175 21 11 52 20 67 20 49 -1 107 -34 128 -73 11 -21
22 -36 25 -34 3 1 42 21 88 45 l82 42 -17 28 c-79 127 -248 183 -408 135z"/>
<path d="M3104 735 c-3 -8 -4 -131 -2 -272 l3 -258 30 -60 c53 -106 143 -149
272 -131 52 7 124 45 147 78 15 21 16 20 28 -26 l12 -47 86 3 85 3 3 363 2
363 -97 -3 -98 -3 -5 -231 -5 -231 -27 -35 c-18 -24 -44 -41 -75 -52 -45 -16
-49 -15 -93 6 -72 36 -75 48 -78 316 l-3 232 -90 0 c-70 0 -91 -3 -95 -15z"/>
</g>
</svg>
