<?xml version="1.0" standalone="no"?>
<!DOCTYPE svg PUBLIC "-//W3C//DTD SVG 20010904//EN"
 "http://www.w3.org/TR/2001/REC-SVG-20010904/DTD/svg10.dtd">
<svg version="1.0" xmlns="http://www.w3.org/2000/svg"
 width="512.000000pt" height="512.000000pt" viewBox="0 0 512.000000 512.000000"
 preserveAspectRatio="xMidYMid meet">

<g transform="translate(0.000000,512.000000) scale(0.100000,-0.100000)"
fill="#eab308" stroke="none">
<path d="M2513 4775 c-16 -11 -45 -87 -114 -300 l-93 -285 -286 0 c-296 0
-341 -5 -360 -40 -14 -26 -12 -73 3 -92 6 -9 118 -93 248 -186 l237 -171 -89
-272 c-49 -150 -89 -280 -90 -288 -5 -56 23 -91 75 -91 27 0 76 31 275 175
l242 176 241 -176 c199 -145 246 -175 274 -175 44 0 74 30 74 73 0 17 -40 155
-89 305 l-89 273 237 170 c130 94 242 178 249 187 14 19 16 66 2 92 -19 35
-64 40 -360 40 l-286 0 -93 285 c-97 299 -105 315 -161 315 -14 0 -35 -7 -47
-15z m111 -520 c33 -102 68 -194 78 -205 18 -19 31 -20 230 -20 170 0 210 -3
200 -12 -7 -7 -81 -63 -165 -124 -103 -75 -155 -119 -161 -137 -8 -22 1 -63
51 -219 34 -106 61 -193 60 -194 -1 -1 -76 51 -167 117 -108 79 -173 119 -190
119 -17 0 -82 -40 -190 -119 -91 -66 -166 -119 -167 -118 -1 2 26 89 60 195
50 157 59 197 51 219 -6 19 -60 65 -174 148 l-165 120 217 5 c202 5 218 6 232
25 8 11 40 102 73 202 32 101 60 183 63 183 3 0 32 -83 64 -185z"/>
<path d="M1974 2686 c-17 -8 -34 -21 -38 -31 -3 -9 -6 -273 -6 -586 l0 -569
-514 0 c-529 0 -566 -3 -586 -40 -6 -12 -10 -224 -10 -554 l0 -535 26 -20 27
-21 1687 0 1687 0 27 21 26 20 0 815 c0 513 -4 822 -10 834 -20 37 -57 40
-586 40 l-514 0 0 291 c0 170 -4 298 -10 309 -20 38 -56 40 -624 40 -440 -1
-557 -4 -582 -14z m1056 -1171 l0 -1025 -470 0 -470 0 0 1025 0 1025 470 0
470 0 0 -1025z m1110 -320 l0 -705 -475 0 -475 0 0 698 c0 384 3 702 7 705 3
4 217 7 475 7 l468 0 0 -705z m-2212 -282 l2 -423 -475 0 -475 0 0 425 0 425
473 -2 472 -3 3 -422z"/>
</g>
</svg>
