<?xml version="1.0" standalone="no"?>
<!DOCTYPE svg PUBLIC "-//W3C//DTD SVG 20010904//EN"
 "http://www.w3.org/TR/2001/REC-SVG-20010904/DTD/svg10.dtd">
<svg version="1.0" xmlns="http://www.w3.org/2000/svg"
 width="512.000000pt" height="512.000000pt" viewBox="0 0 512.000000 512.000000"
 preserveAspectRatio="xMidYMid meet">
<metadata>
Created by potrace 1.16, written by Peter Selinger 2001-2019
</metadata>
<g transform="translate(0.000000,512.000000) scale(0.100000,-0.100000)"
fill="#eab308" stroke="none">
<path d="M1630 4838 c-33 -17 -51 -35 -67 -68 -21 -40 -23 -59 -23 -192 l0
-148 -280 0 c-217 0 -298 -4 -358 -16 -320 -66 -570 -324 -627 -649 -23 -132
-23 -2708 0 -2840 54 -310 286 -557 600 -641 67 -18 140 -19 1685 -19 1545 0
1618 1 1685 19 295 78 513 296 591 591 18 67 19 135 19 1470 l0 1400 -22 82
c-80 299 -318 526 -615 587 -60 12 -141 16 -358 16 l-280 0 0 148 c0 136 -2
153 -23 192 -26 50 -90 90 -141 90 -42 0 -115 -38 -140 -73 -19 -25 -21 -46
-24 -193 l-3 -164 -689 0 -689 0 -3 164 c-3 147 -5 168 -24 193 -25 35 -98 73
-139 73 -17 0 -51 -10 -75 -22z m-88 -897 c3 -177 8 -191 78 -238 45 -31 129
-32 177 -2 61 38 73 78 73 249 l0 150 690 0 690 0 0 -150 c0 -130 3 -156 20
-189 54 -107 208 -111 284 -8 19 26 21 45 24 188 l3 159 267 0 c282 0 320 -5
416 -50 69 -33 167 -128 204 -198 48 -90 62 -165 62 -339 l0 -153 -1970 0
-1970 0 0 153 c0 174 14 249 62 339 37 70 135 165 204 198 94 44 126 48 411
49 l272 1 3 -159z m2988 -1899 c0 -674 -4 -1018 -11 -1058 -35 -190 -193 -348
-383 -383 -83 -15 -3069 -15 -3152 0 -190 35 -348 193 -383 383 -7 40 -11 384
-11 1058 l0 998 1970 0 1970 0 0 -998z"/>
<path d="M1185 2543 c-151 -79 -165 -280 -27 -378 40 -27 51 -30 122 -30 71 0
82 3 122 30 135 96 123 301 -23 375 -48 25 -150 26 -194 3z"/>
<path d="M2035 2544 c-85 -46 -118 -108 -113 -209 4 -91 36 -142 111 -180 150
-74 316 26 317 191 0 68 -38 143 -92 180 -35 25 -52 29 -117 32 -55 2 -84 -2
-106 -14z"/>
<path d="M2895 2546 c-135 -60 -167 -256 -59 -358 94 -88 257 -72 330 34 24
34 29 54 32 113 5 101 -29 164 -110 206 -44 23 -147 25 -193 5z"/>
<path d="M3745 2543 c-151 -79 -165 -280 -27 -378 40 -27 51 -30 122 -30 71 0
82 3 122 30 135 96 123 301 -23 375 -48 25 -150 26 -194 3z"/>
<path d="M1200 1699 c-176 -74 -184 -317 -13 -403 46 -23 144 -21 192 4 146
74 158 279 23 374 -36 25 -54 31 -110 33 -37 2 -78 -2 -92 -8z"/>
<path d="M2033 1685 c-32 -16 -61 -41 -79 -67 -26 -37 -29 -49 -29 -124 0 -75
3 -86 30 -125 17 -23 50 -53 75 -66 38 -21 56 -24 116 -21 90 4 141 36 179
111 96 193 -99 388 -292 292z"/>
<path d="M2895 1691 c-113 -52 -157 -183 -100 -298 38 -75 89 -107 179 -111
91 -4 146 22 194 94 32 47 34 53 30 125 -2 64 -7 82 -32 117 -56 82 -180 115
-271 73z"/>
<path d="M3760 1699 c-176 -74 -184 -317 -13 -403 46 -23 144 -21 192 4 146
74 158 279 23 374 -36 25 -54 31 -110 33 -37 2 -78 -2 -92 -8z"/>
</g>
</svg>
