<?xml version="1.0" standalone="no"?>
<!DOCTYPE svg PUBLIC "-//W3C//DTD SVG 20010904//EN"
 "http://www.w3.org/TR/2001/REC-SVG-20010904/DTD/svg10.dtd">
<svg version="1.0" xmlns="http://www.w3.org/2000/svg"
 width="512.000000pt" height="512.000000pt" viewBox="0 0 512.000000 512.000000"
 preserveAspectRatio="xMidYMid meet">

<g transform="translate(0.000000,512.000000) scale(0.100000,-0.100000)"
fill="#eab308" stroke="none">
<path d="M1660 5034 c-454 -54 -823 -227 -1123 -527 -553 -553 -693 -1380
-352 -2083 232 -480 673 -838 1194 -970 321 -82 695 -68 1013 37 172 57 376
163 511 266 l57 44 213 -206 214 -207 -21 -41 c-28 -57 -28 -148 1 -202 12
-22 101 -119 200 -216 463 -456 819 -796 856 -819 56 -34 162 -35 223 -3 47
25 422 410 450 463 28 53 26 163 -4 215 -27 48 -996 989 -1052 1023 -51 31
-132 39 -188 19 l-44 -15 -211 205 c-117 114 -218 212 -225 218 -11 10 -8 21
17 62 50 81 127 251 160 353 345 1067 -328 2176 -1434 2366 -87 15 -384 27
-455 18z m338 -165 c487 -53 930 -322 1207 -734 64 -96 158 -291 194 -402 59
-180 76 -297 75 -513 0 -293 -41 -476 -163 -725 -84 -171 -165 -287 -296 -423
-401 -418 -971 -594 -1543 -476 -402 83 -793 348 -1023 692 -341 509 -382
1122 -113 1667 84 170 173 294 314 435 137 137 262 228 425 310 293 146 606
204 923 169z m1486 -2963 l209 -203 -93 -97 c-52 -53 -99 -95 -106 -94 -6 2
-102 91 -212 199 l-201 196 40 39 c22 21 64 67 92 102 28 34 53 62 56 61 3 0
100 -91 215 -203z m518 -273 c129 -115 948 -918 954 -935 3 -11 3 -31 0 -44
-8 -32 -372 -403 -403 -410 -13 -4 -33 -3 -43 2 -34 16 -998 957 -1004 980 -3
12 -2 33 3 46 5 13 94 110 198 216 217 222 211 219 295 145z"/>
<path d="M1660 4590 c-312 -44 -570 -166 -787 -373 -214 -205 -353 -458 -409
-747 -27 -138 -25 -390 4 -522 107 -493 456 -886 921 -1038 162 -52 241 -64
431 -65 203 0 312 19 490 86 748 280 1100 1154 756 1875 -72 151 -142 250
-258 370 -201 207 -443 340 -717 395 -111 22 -337 32 -431 19z m395 -175 c510
-105 893 -506 970 -1015 89 -583 -257 -1148 -817 -1335 -517 -173 -1079 14
-1388 461 -336 486 -277 1137 140 1554 188 187 441 313 705 349 95 13 292 6
390 -14z"/>
<path d="M2405 3895 c-22 -8 -42 -15 -45 -15 -2 0 -168 -163 -367 -362 l-363
-362 -167 165 c-141 139 -176 169 -217 182 -175 59 -346 -59 -346 -237 1 -106
14 -125 308 -419 149 -150 284 -277 307 -289 22 -11 67 -23 100 -26 117 -9
110 -14 622 501 331 333 465 475 481 508 32 66 30 158 -4 228 -56 111 -193
167 -309 126z m153 -180 c15 -18 22 -39 22 -66 0 -40 -7 -48 -442 -491 -244
-247 -451 -454 -460 -459 -9 -5 -32 -9 -50 -9 -29 0 -58 26 -300 268 -257 256
-268 269 -268 305 0 53 43 97 96 97 35 0 49 -11 239 -200 182 -181 205 -200
236 -200 32 -1 59 25 414 383 209 212 389 390 400 396 31 17 87 5 113 -24z"/>
</g>
</svg>
