<?xml version="1.0" standalone="no"?>
<!DOCTYPE svg PUBLIC "-//W3C//DTD SVG 20010904//EN"
 "http://www.w3.org/TR/2001/REC-SVG-20010904/DTD/svg10.dtd">
<svg version="1.0" xmlns="http://www.w3.org/2000/svg"
 width="512.000000pt" height="512.000000pt" viewBox="0 0 512.000000 512.000000"
 preserveAspectRatio="xMidYMid meet">
<metadata>
Created by potrace 1.16, written by Peter Selinger 2001-2019
</metadata>
<g transform="translate(0.000000,512.000000) scale(0.100000,-0.100000)"
fill="#eab308" stroke="none">
<path d="M2910 4600 c-416 -50 -707 -298 -806 -687 -33 -130 -44 -268 -44
-545 l0 -238 -280 0 -281 0 -25 -25 -25 -25 3 -375 c3 -344 4 -376 21 -392 16
-16 45 -18 302 -21 l285 -3 2 -865 3 -866 28 -24 28 -24 374 0 c258 0 382 4
399 11 14 7 30 25 36 42 7 20 10 312 10 878 l0 848 323 3 c177 2 330 7 340 12
39 19 42 42 45 356 4 361 0 423 -33 456 l-24 24 -326 0 -326 0 3 273 c3 267 3
273 27 311 16 25 40 46 70 59 42 19 70 21 306 25 290 4 297 6 314 69 14 51 14
616 0 666 -18 65 -33 67 -381 66 -167 -1 -332 -5 -368 -9z"/>
</g>
</svg>
