<?xml version="1.0" standalone="no"?>
<!DOCTYPE svg PUBLIC "-//W3C//DTD SVG 20010904//EN"
 "http://www.w3.org/TR/2001/REC-SVG-20010904/DTD/svg10.dtd">
<svg version="1.0" xmlns="http://www.w3.org/2000/svg"
 width="512.000000pt" height="512.000000pt" viewBox="0 0 512.000000 512.000000"
 preserveAspectRatio="xMidYMid meet">

<g transform="translate(0.000000,512.000000) scale(0.100000,-0.100000)"
fill="#eab308" stroke="none">
<path d="M2435 4264 c-16 -2 -70 -9 -118 -15 -265 -33 -552 -152 -784 -325
-100 -75 -262 -237 -337 -337 -170 -229 -282 -496 -327 -782 -17 -103 -17
-387 0 -490 59 -373 222 -697 486 -960 263 -263 588 -428 960 -486 107 -17
378 -17 490 0 747 113 1328 693 1446 1446 17 103 17 387 0 490 -58 373 -222
696 -486 960 -259 260 -569 420 -930 480 -89 15 -343 27 -400 19z m390 -219
c116 -21 299 -82 406 -135 426 -214 729 -620 815 -1090 27 -144 25 -392 -4
-537 -124 -622 -602 -1096 -1222 -1209 -130 -24 -390 -24 -520 0 -623 114
-1112 603 -1226 1226 -24 130 -24 390 0 520 35 194 122 411 229 570 256 385
641 615 1127 674 67 8 306 -4 395 -19z"/>
<path d="M2499 3591 c-75 -76 4 -201 102 -161 40 17 59 47 59 93 0 53 -43 97
-95 97 -27 0 -44 -8 -66 -29z"/>
<path d="M2281 3156 c-56 -31 -66 -99 -22 -148 28 -32 33 -33 115 -37 l85 -3
3 -710 3 -710 33 -29 c44 -39 90 -39 134 0 l33 29 3 739 c2 406 0 758 -3 782
-5 29 -16 54 -35 73 l-28 28 -149 0 c-104 -1 -155 -5 -172 -14z"/>
</g>
</svg>
