<?xml version="1.0" standalone="no"?>
<!DOCTYPE svg PUBLIC "-//W3C//DTD SVG 20010904//EN"
 "http://www.w3.org/TR/2001/REC-SVG-20010904/DTD/svg10.dtd">
<svg version="1.0" xmlns="http://www.w3.org/2000/svg"
 width="512.000000pt" height="512.000000pt" viewBox="0 0 512.000000 512.000000"
 preserveAspectRatio="xMidYMid meet">
<metadata>
Created by potrace 1.16, written by Peter Selinger 2001-2019
</metadata>
<g transform="translate(0.000000,512.000000) scale(0.100000,-0.100000)"
fill="#1e1701" stroke="none">
<path d="M2940 4745 c-30 -9 -75 -29 -100 -45 -25 -16 -232 -217 -461 -447
-369 -371 -419 -426 -451 -488 -77 -150 -93 -327 -44 -482 47 -146 77 -180
683 -784 552 -549 559 -556 643 -597 107 -52 225 -77 326 -69 97 9 218 48 290
96 36 23 224 204 476 457 484 486 473 471 473 634 0 87 -3 101 -33 165 -31 66
-71 108 -750 787 -671 671 -721 719 -784 748 -83 39 -184 48 -268 25z m415
-684 c56 -26 689 -662 710 -713 20 -50 19 -104 -4 -153 -11 -23 -70 -91 -142
-162 -102 -99 -132 -123 -168 -133 -54 -14 -103 -6 -156 25 -22 13 -180 165
-352 337 -320 321 -352 361 -353 433 0 74 19 106 137 226 64 65 134 127 157
139 51 25 118 26 171 1z"/>
<path d="M3142 3827 c-75 -75 -102 -109 -102 -127 0 -36 624 -660 660 -660 17
0 53 29 127 103 83 84 103 109 103 132 0 25 -46 75 -312 342 -273 273 -316
313 -343 313 -25 0 -48 -17 -133 -103z"/>
<path d="M1945 2780 l-60 -60 410 -410 c226 -226 415 -410 420 -410 6 0 37 26
69 58 l57 59 -407 411 c-224 227 -412 412 -419 412 -6 0 -37 -27 -70 -60z"/>
<path d="M1069 1903 c-389 -390 -712 -719 -719 -732 -12 -24 -10 -168 6 -419
l7 -94 246 244 c135 134 517 512 849 840 l604 596 -133 136 c-73 75 -138 136
-143 136 -6 0 -329 -318 -717 -707z"/>
<path d="M1265 1344 c-669 -662 -895 -892 -895 -909 0 -12 9 -33 19 -46 l19
-24 387 -3 387 -3 99 98 c55 54 102 108 105 120 10 38 -5 75 -45 114 -77 72
-87 114 -39 159 40 37 81 27 148 -35 50 -46 66 -55 97 -55 34 0 47 10 150 113
103 103 113 116 113 150 0 30 -9 47 -50 92 -27 30 -52 66 -56 79 -13 55 57
124 112 110 15 -4 51 -29 81 -55 43 -40 60 -49 90 -49 34 0 47 10 155 118 111
111 118 120 118 158 0 35 -7 47 -60 101 -43 43 -60 68 -60 87 0 32 41 76 70
76 11 0 49 -27 85 -60 64 -60 98 -77 132 -66 10 3 56 44 103 91 l85 85 -220
220 c-121 121 -223 220 -227 220 -4 0 -410 -399 -903 -886z"/>
</g>
</svg>
