<?xml version="1.0" standalone="no"?>
<!DOCTYPE svg PUBLIC "-//W3C//DTD SVG 20010904//EN"
 "http://www.w3.org/TR/2001/REC-SVG-20010904/DTD/svg10.dtd">
<svg version="1.0" xmlns="http://www.w3.org/2000/svg"
 width="512.000000pt" height="512.000000pt" viewBox="0 0 512.000000 512.000000"
 preserveAspectRatio="xMidYMid meet">
<metadata>
Created by potrace 1.16, written by Peter Selinger 2001-2019
</metadata>
<g transform="translate(0.000000,512.000000) scale(0.100000,-0.100000)"
fill="#eab308" stroke="none">
<path d="M3439 5091 c-24 -15 -143 -129 -265 -252 -196 -199 -225 -232 -258
-299 -51 -104 -66 -168 -66 -285 0 -117 15 -181 66 -285 33 -67 62 -100 258
-299 122 -123 241 -237 265 -252 38 -24 55 -29 110 -29 124 0 201 77 201 201
0 91 -21 119 -253 342 -211 203 -237 238 -237 322 0 84 26 119 237 322 232
223 253 251 253 342 0 81 -31 139 -94 176 -64 37 -155 36 -217 -4z"/>
<path d="M977 4444 c-476 -86 -859 -463 -956 -941 -20 -97 -21 -133 -21 -943
0 -810 1 -846 21 -943 112 -549 600 -957 1147 -957 84 0 100 3 138 25 63 37
94 95 94 175 0 126 -71 193 -215 205 -134 10 -224 33 -330 85 -172 84 -281
193 -365 365 -87 180 -85 149 -85 1045 0 896 -2 865 85 1045 84 172 193 282
365 365 172 83 163 82 800 87 l560 4 42 25 c62 36 93 94 93 174 0 80 -31 138
-94 175 l-43 25 -579 -1 c-453 -1 -596 -4 -657 -15z"/>
<path d="M3813 4434 c-62 -37 -93 -95 -93 -174 0 -128 71 -194 220 -205 130
-10 242 -40 339 -90 163 -84 271 -195 351 -360 87 -180 85 -149 85 -1045 0
-884 2 -862 -76 -1030 -81 -174 -202 -296 -374 -380 -172 -83 -164 -82 -790
-87 l-550 -4 -42 -25 c-62 -36 -93 -94 -93 -174 0 -80 31 -138 94 -175 l43
-25 560 0 c459 0 576 3 649 15 479 84 866 462 963 942 20 97 21 133 21 943 0
810 -1 846 -21 943 -111 549 -601 957 -1148 957 -85 0 -101 -3 -138 -26z"/>
<path d="M2369 3381 c-26 -10 -99 -51 -163 -90 -141 -88 -166 -121 -166 -221
0 -123 77 -200 202 -200 60 0 71 4 146 50 l82 49 0 -576 0 -576 25 -43 c37
-63 95 -94 175 -94 80 0 138 31 175 94 l25 43 -2 659 -3 659 -27 57 c-34 73
-103 142 -176 176 -76 36 -222 42 -293 13z"/>
<path d="M1483 1704 c-62 -37 -93 -95 -93 -175 0 -91 21 -119 253 -342 211
-203 237 -238 237 -322 0 -84 -26 -119 -237 -322 -232 -223 -253 -251 -253
-342 0 -124 77 -201 201 -201 55 0 72 5 110 29 24 15 143 129 265 252 196 199
225 232 258 299 51 104 66 168 66 285 0 117 -15 181 -66 285 -33 67 -62 100
-258 299 -122 123 -241 237 -265 252 -62 40 -155 41 -218 3z"/>
</g>
</svg>
