<?xml version="1.0" standalone="no"?>
<!DOCTYPE svg PUBLIC "-//W3C//DTD SVG 20010904//EN"
 "http://www.w3.org/TR/2001/REC-SVG-20010904/DTD/svg10.dtd">
<svg version="1.0" xmlns="http://www.w3.org/2000/svg"
 width="512.000000pt" height="512.000000pt" viewBox="0 0 512.000000 512.000000"
 preserveAspectRatio="xMidYMid meet">
<metadata>
Created by potrace 1.16, written by Peter Selinger 2001-2019
</metadata>
<g transform="translate(0.000000,512.000000) scale(0.100000,-0.100000)"
fill="#eab308" stroke="none">
<path d="M724 5104 c-54 -19 -114 -71 -332 -287 -241 -239 -303 -333 -360
-547 -34 -128 -42 -390 -18 -555 99 -665 590 -1507 1311 -2244 815 -834 1701
-1366 2430 -1462 144 -19 399 -7 515 24 215 57 308 118 547 359 288 291 303
313 303 458 0 137 3 133 -512 646 -512 510 -485 489 -638 489 -125 -1 -152
-17 -351 -211 -173 -169 -218 -201 -326 -229 -169 -44 -304 2 -618 210 -195
130 -336 245 -505 415 -170 169 -285 310 -415 505 -208 314 -254 449 -210 618
28 109 60 154 229 327 187 190 207 223 214 339 3 61 0 88 -18 136 -21 57 -46
84 -474 513 -517 519 -509 513 -650 511 -45 0 -99 -7 -122 -15z"/>
</g>
</svg>
