<?xml version="1.0" standalone="no"?>
<!DOCTYPE svg PUBLIC "-//W3C//DTD SVG 20010904//EN"
 "http://www.w3.org/TR/2001/REC-SVG-20010904/DTD/svg10.dtd">
<svg version="1.0" xmlns="http://www.w3.org/2000/svg"
 width="512.000000pt" height="512.000000pt" viewBox="0 0 512.000000 512.000000"
 preserveAspectRatio="xMidYMid meet">
<metadata>
Created by potrace 1.16, written by Peter Selinger 2001-2019
</metadata>
<g transform="translate(0.000000,512.000000) scale(0.100000,-0.100000)"
fill="#eab308" stroke="none">
<path d="M1222 4280 c9 -27 584 -819 593 -816 9 2 595 812 595 822 0 2 -268 4
-596 4 -380 0 -594 -4 -592 -10z"/>
<path d="M2710 4286 c0 -10 586 -820 595 -822 9 -3 584 789 593 816 3 7 -204
10 -592 10 -328 0 -596 -2 -596 -4z"/>
<path d="M775 3830 c-157 -219 -288 -406 -291 -415 -6 -13 57 -15 586 -15 376
0 590 4 588 10 -6 18 -583 819 -590 820 -4 0 -136 -180 -293 -400z"/>
<path d="M2258 3818 l-296 -413 299 -3 c164 -1 434 -1 598 0 l300 3 -295 410
c-162 226 -298 411 -302 413 -5 1 -141 -183 -304 -410z"/>
<path d="M3755 3824 c-159 -222 -291 -409 -293 -414 -2 -6 214 -10 588 -10
529 0 592 2 586 15 -9 25 -576 815 -584 815 -4 -1 -137 -183 -297 -406z"/>
<path d="M482 3240 c2 -5 424 -534 938 -1175 514 -641 941 -1173 947 -1182 7
-9 15 -14 18 -12 2 3 -138 539 -312 1192 l-316 1187 -639 0 c-413 0 -638 -3
-636 -10z"/>
<path d="M1912 3238 c3 -7 149 -552 324 -1210 175 -659 321 -1198 324 -1198 3
0 149 539 324 1198 175 658 321 1203 324 1210 3 9 -131 12 -648 12 -517 0
-651 -3 -648 -12z"/>
<path d="M3047 2063 c-174 -653 -314 -1189 -312 -1192 3 -2 11 3 18 12 6 8
433 540 947 1182 514 641 937 1170 938 1175 2 7 -225 10 -636 10 l-639 0 -316
-1187z"/>
</g>
</svg>
