<?xml version="1.0" standalone="no"?>
<!DOCTYPE svg PUBLIC "-//W3C//DTD SVG 20010904//EN"
 "http://www.w3.org/TR/2001/REC-SVG-20010904/DTD/svg10.dtd">
<svg version="1.0" xmlns="http://www.w3.org/2000/svg"
 width="512.000000pt" height="512.000000pt" viewBox="0 0 512.000000 512.000000"
 preserveAspectRatio="xMidYMid meet">
<metadata>
Created by potrace 1.16, written by Peter Selinger 2001-2019
</metadata>
<g transform="translate(0.000000,512.000000) scale(0.100000,-0.100000)"
fill="#eab308" stroke="none">
<path d="M4810 4686 c-25 -7 -421 -158 -880 -334 -459 -176 -1460 -559 -2225
-852 -765 -293 -1428 -547 -1475 -566 -158 -64 -230 -130 -230 -214 0 -54 25
-89 90 -124 44 -24 1207 -394 1250 -398 8 -1 623 379 1367 845 743 465 1366
853 1384 863 40 20 103 24 121 6 10 -10 9 -17 -2 -36 -8 -13 -508 -466 -1110
-1006 l-1095 -983 -36 -506 c-20 -278 -40 -548 -43 -598 l-7 -93 44 0 c80 0
127 37 456 352 l310 297 593 -434 c391 -287 612 -442 648 -457 36 -14 78 -22
120 -22 105 -1 167 45 219 164 10 25 198 882 416 1905 391 1834 397 1861 393
1956 -3 86 -7 102 -34 145 -53 86 -165 123 -274 90z"/>
</g>
</svg>
